<svg xmlns="http://www.w3.org/2000/svg" viewBox="0 0 100 100" preserveAspectRatio="xMidYMid" width="200" height="200" style="shape-rendering: auto; display: block; background: transparent;" xmlns:xlink="http://www.w3.org/1999/xlink"><g><g transform="translate(50 50)">
  <g transform="scale(0.7)">
    <g transform="translate(-50 -50)">
      <g>
        <animateTransform dur="1.3888888888888886s" keyTimes="0;1" values="0 50 50;360 50 50" repeatCount="indefinite" type="rotate" attributeName="transform"></animateTransform>
        <path d="M50 50L50 0A50 50 0 0 1 100 50Z" fill="#e15b64" fill-opacity="0.8"></path>
      </g>
      <g>
        <animateTransform dur="1.8518518518518516s" keyTimes="0;1" values="0 50 50;360 50 50" repeatCount="indefinite" type="rotate" attributeName="transform"></animateTransform>
        <path transform="rotate(90 50 50)" d="M50 50L50 0A50 50 0 0 1 100 50Z" fill="#f47e60" fill-opacity="0.8"></path>
      </g>
      <g>
        <animateTransform dur="2.7777777777777772s" keyTimes="0;1" values="0 50 50;360 50 50" repeatCount="indefinite" type="rotate" attributeName="transform"></animateTransform>
        <path transform="rotate(180 50 50)" d="M50 50L50 0A50 50 0 0 1 100 50Z" fill="#f8b26a" fill-opacity="0.8"></path>
      </g>
      <g>
        <animateTransform dur="5.5555555555555545s" keyTimes="0;1" values="0 50 50;360 50 50" repeatCount="indefinite" type="rotate" attributeName="transform"></animateTransform>
        <path transform="rotate(270 50 50)" d="M50 50L50 0A50 50 0 0 1 100 50Z" fill="#abbd81" fill-opacity="0.8"></path>
      </g>
    </g>
  </g>
</g><g></g></g><!-- [ldio] generated by https://loading.io --></svg>