<svg width="168" height="42" viewBox="0 0 168 42" fill="none" xmlns="http://www.w3.org/2000/svg">
<g clip-path="url(#clip0_20_3)">
<path fill-rule="evenodd" clip-rule="evenodd" d="M9.15131 9.69544C9.15131 8.47804 10.1489 7.47805 11.3633 7.47805C12.5777 7.47805 13.5752 8.47804 13.5752 9.69544C13.5752 10.9128 12.5777 11.9128 11.3633 11.9128C10.1489 11.9128 9.15131 10.9128 9.15131 9.69544ZM29.9914 25.4998C29.9914 31.3693 26.4349 36.3693 20.1677 39.2607C16.763 40.8259 13.5318 41.6085 8.67422 41.9998C7.7851 41.9998 -0.910908 42.2172 0.0866394 40.7389C1.97331 39.3911 3.14434 38.652 3.42625 36.0867C3.42625 34.9998 3.49131 29.9128 3.49131 22.1085C3.49131 19.1085 3.49131 16.8476 3.49131 15.1302H3.46963C3.46963 10.0215 3.513 9.6737 3.59974 8.97805C3.8166 7.45631 4.07683 6.65196 4.66235 5.45631C5.59484 3.60848 7.45982 1.93457 9.4766 1.13022C11.2331 0.412828 13.4451 0.0432627 15.6787 -0.000215562C18.5413 -0.065433 21.4689 0.434567 23.5507 1.49978C25.1771 2.32587 26.4783 3.52152 27.324 4.99978C28.43 6.86935 28.9288 9.39109 28.7553 12.1737C28.6035 14.7389 28.0397 16.5867 26.912 18.2824C26.6734 18.652 26.4783 18.9998 26.4783 19.065C26.4783 19.1302 26.6951 19.3476 27.0638 19.6302C29.0372 21.0867 29.9697 22.9563 29.9697 25.4998H29.9914ZM8.00196 14.2607C8.0887 14.5433 8.28388 15.065 8.45736 15.4128C8.73928 15.978 8.84771 16.1302 9.4766 16.7607C10.5826 17.8476 11.45 18.2824 13.2933 18.5867C14.3125 18.7607 15.7004 18.7824 17.7823 18.652C19.2786 18.565 19.7123 18.4998 20.3629 18.2824C22.0327 17.7389 23.3121 16.6085 23.9844 15.0867H23.9627C24.0928 14.7824 24.2229 14.478 24.3097 14.1302C24.7217 12.5215 24.7651 9.99978 24.3748 8.45631C23.9627 6.80413 22.5531 5.6737 20.9267 5.60848C20.558 5.60848 20.1677 5.63022 19.7774 5.73891C18.4112 6.10848 17.3919 6.99978 16.9148 8.28239C16.8281 8.49978 16.7847 8.69544 16.7413 8.86935H16.7197C16.6546 9.13022 16.6329 9.41283 16.6329 9.76065C16.6329 10.6085 16.8064 11.152 17.3485 12.0215C17.4787 12.2389 17.6088 12.4563 17.6088 12.4998C17.6088 12.5433 17.522 12.6302 17.4136 12.7172C16.8931 13.1085 16.3727 13.8693 16.1341 14.565C16.0908 14.6954 16.004 14.6302 15.8956 14.3259C15.6571 13.7172 15.1149 13.0215 14.6595 12.6737C14.5728 12.6085 14.486 12.5433 14.486 12.4998C14.486 12.478 14.5728 12.2607 14.7029 12.065C15.2667 11.1737 15.4619 10.565 15.4619 9.76065C15.4619 8.15196 14.5294 6.71718 13.0764 6.02152C13.0764 6.02152 13.0331 6.02152 13.0114 5.99978C12.8596 5.93457 12.6861 5.86935 12.5343 5.80413C12.4692 5.78239 12.4042 5.76065 12.3391 5.73891C11.7753 5.58674 11.2331 5.565 10.691 5.6737C10.6476 5.6737 10.6259 5.6737 10.5826 5.69544C10.5392 5.69544 10.4741 5.71718 10.4308 5.73891C9.28142 6.065 8.32725 6.97805 7.95859 8.19544C7.39476 10.065 7.45982 12.3693 7.95859 14.2389L8.00196 14.2607ZM23.0519 24.8911L23.0085 24.8476C21.4905 23.7389 19.2135 23.8476 17.3702 23.8476C14.7029 23.9346 12.2307 23.8041 10.2573 24.7172C8.19713 25.8041 8.11039 28.4346 8.04533 30.5433C8.04533 32.1954 8.11039 34.4128 9.21637 35.478C10.9295 36.8911 13.7053 35.7172 15.6354 35.1954C18.8666 34.1085 21.5339 32.4998 23.1387 29.7824C24.0278 28.3041 24.6133 26.065 23.0519 24.8476V24.8911ZM20.8833 11.9128C22.0977 11.9128 23.0953 10.9128 23.0953 9.69544C23.0953 8.47804 22.0977 7.47805 20.8833 7.47805C19.6689 7.47805 18.6714 8.47804 18.6714 9.69544C18.6714 10.9128 19.6689 11.9128 20.8833 11.9128Z" fill="url(#paint0_linear_20_3)"/>
<path d="M58.4649 20.6737C57.5541 20.1084 56.5132 19.7824 55.2988 19.6737V19.5867C56.2096 19.4563 57.0336 19.1302 57.7493 18.5867C58.4649 18.0432 59.0287 17.3693 59.4408 16.565C59.8528 15.7606 60.0697 14.8911 60.0697 13.978V13.9345C60.0697 12.6519 59.7661 11.5215 59.1372 10.5432C58.5083 9.5867 57.6192 8.82583 56.4915 8.30409C55.3638 7.78235 54.0193 7.52148 52.5013 7.52148H42.1355V33.1737H52.5881C54.4097 33.1737 55.971 32.8911 57.2722 32.3041C58.5733 31.7171 59.5709 30.8911 60.2865 29.8041C60.9805 28.7171 61.3491 27.4345 61.3491 25.9345V25.8911C61.3491 24.7606 61.1106 23.7606 60.6118 22.8693C60.113 21.978 59.4191 21.2389 58.5083 20.6737H58.4649ZM51.4387 10.9128C52.8483 10.9128 53.9543 11.2171 54.7133 11.8476C55.4723 12.4563 55.8626 13.3476 55.8626 14.4997V14.5432C55.8626 15.8041 55.4072 16.7606 54.5181 17.4345C53.629 18.1084 52.3061 18.4563 50.593 18.4563H46.2992V10.9345H51.417L51.4387 10.9128ZM57.012 25.7171C57.012 27.065 56.5566 28.065 55.6458 28.7606C54.735 29.4563 53.4121 29.8041 51.6556 29.8041H46.3209V21.6084H51.3953C52.6314 21.6084 53.6507 21.7606 54.4964 22.065C55.3205 22.3693 55.9494 22.8258 56.3831 23.4345C56.8168 24.0432 57.012 24.7824 57.012 25.6954V25.7389V25.7171Z" fill="white"/>
<path d="M75.6401 14.8256C74.5124 14.3038 73.1679 14.043 71.6282 14.043C70.0885 14.043 68.744 14.3038 67.6163 14.8038C66.4887 15.3038 65.6212 15.9995 64.9707 16.8691C64.3418 17.7386 63.9731 18.7169 63.8647 19.8038V19.9995H67.638L67.6814 19.8473C67.8332 19.1082 68.2452 18.5212 68.8958 18.0647C69.5464 17.6082 70.4138 17.3908 71.4981 17.3908C72.5824 17.3908 73.5582 17.6734 74.1871 18.2386C74.816 18.8038 75.1196 19.5864 75.1196 20.5864V21.956L70.1102 22.2604C67.8765 22.3908 66.1417 22.9343 64.9273 23.9125C63.7129 24.8691 63.084 26.1951 63.084 27.8256V27.8691C63.084 28.9778 63.3442 29.956 63.8647 30.8256C64.3851 31.6734 65.1225 32.3473 66.0549 32.8256C66.9874 33.3038 68.0934 33.543 69.3295 33.543C70.5656 33.543 70.9343 33.4125 71.6716 33.1517C72.4089 32.8908 73.0595 32.4995 73.6233 32.0212C74.1871 31.5212 74.6642 30.956 75.0112 30.2821H75.0979V33.2169H79.1749V20.3038C79.1749 19.043 78.8713 17.956 78.2424 17.0212C77.6135 16.0864 76.7461 15.3691 75.6184 14.8473L75.6401 14.8256ZM74.5124 28.3038C74.1004 28.9343 73.5582 29.4125 72.8643 29.7821C72.1703 30.1517 71.3897 30.3256 70.5005 30.3256C69.6114 30.3256 68.6789 30.0864 68.0717 29.6299C67.4645 29.1517 67.1609 28.5212 67.1609 27.7386V27.6951C67.1609 26.9343 67.4645 26.3038 68.0717 25.8473C68.6789 25.3691 69.5464 25.1082 70.6523 25.043L75.0979 24.7604V26.2169C75.0979 26.9995 74.9028 27.6951 74.4907 28.3256L74.5124 28.3038Z" fill="white"/>
<path d="M86.6781 7.52148H82.6228V33.1737H86.6781V7.52148Z" fill="white"/>
<path d="M101.988 14.8256C100.861 14.3038 99.5163 14.043 97.9766 14.043C96.4369 14.043 95.0924 14.3038 93.9647 14.8038C92.837 15.3038 91.9696 15.9995 91.319 16.8691C90.6902 17.7386 90.3215 18.7169 90.2131 19.8038V19.9995H93.9864L94.0298 19.8473C94.1816 19.1082 94.5936 18.5212 95.2442 18.0647C95.8947 17.6082 96.7622 17.3908 97.8465 17.3908C98.9308 17.3908 99.9066 17.6734 100.536 18.2386C101.164 18.8038 101.468 19.5864 101.468 20.5864V21.956L96.4586 22.2604C94.2249 22.3908 92.4901 22.9343 91.2757 23.9125C90.0613 24.8691 89.4324 26.1951 89.4324 27.8256V27.8691C89.4324 28.9778 89.6926 29.956 90.2131 30.8256C90.7335 31.6734 91.4708 32.3473 92.4033 32.8256C93.3358 33.3038 94.4418 33.543 95.6779 33.543C96.914 33.543 97.2826 33.4125 98.02 33.1517C98.7573 32.8908 99.4078 32.4995 99.9717 32.0212C100.536 31.5212 101.013 30.956 101.36 30.2821H101.446V33.2169H105.523V20.3038C105.523 19.043 105.22 17.956 104.591 17.0212C103.962 16.0864 103.094 15.3691 101.967 14.8473L101.988 14.8256ZM100.861 28.3038C100.449 28.9343 99.9066 29.4125 99.2127 29.7821C98.5187 30.1517 97.738 30.3256 96.8489 30.3256C95.9598 30.3256 95.0273 30.0864 94.4201 29.6299C93.8129 29.1517 93.5093 28.5212 93.5093 27.7386V27.6951C93.5093 26.9343 93.8129 26.3038 94.4201 25.8473C95.0273 25.3691 95.8947 25.1082 97.0007 25.043L101.446 24.7604V26.2169C101.446 26.9995 101.251 27.6951 100.839 28.3256L100.861 28.3038Z" fill="white"/>
<path d="M118.686 14.043C117.277 14.043 116.084 14.3473 115.13 14.9343C114.176 15.5212 113.46 16.3038 112.961 17.2821H112.875V14.4125H108.819V33.1734H112.875V22.2604C112.875 21.3038 113.048 20.4778 113.417 19.7821C113.764 19.0647 114.284 18.5212 114.935 18.1299C115.585 17.7386 116.344 17.543 117.212 17.543C118.513 17.543 119.489 17.9125 120.139 18.6734C120.79 19.4125 121.115 20.4778 121.115 21.8691V33.2169H125.17V21.0864C125.17 18.9125 124.607 17.2169 123.479 15.9778C122.351 14.7386 120.768 14.1082 118.708 14.1082L118.686 14.043Z" fill="white"/>
<path d="M133.671 9.58691H129.529V14.413H126.862V17.6087H129.529V28.1739C129.529 30.0652 129.985 31.4347 130.917 32.2826C131.85 33.1304 133.238 33.5434 135.146 33.5434C137.054 33.5434 135.948 33.5434 136.295 33.5C136.642 33.4565 136.946 33.4347 137.185 33.3913V30.2826C137.033 30.2826 136.881 30.3043 136.707 30.326C136.534 30.326 136.339 30.3478 136.122 30.3478C135.32 30.3478 134.712 30.1739 134.3 29.826C133.888 29.4782 133.671 28.826 133.671 27.8913V17.6087H137.163V14.413H133.671V9.58691Z" fill="white"/>
<path d="M148.353 14.0432C147.29 14.0432 146.379 14.3693 145.62 14.9997C144.861 15.6302 144.341 16.5215 144.059 17.6302H143.972V14.4128H139.917V33.1737H143.972V22.1084C143.972 21.1737 144.124 20.3693 144.449 19.7171C144.774 19.065 145.23 18.565 145.837 18.2171C146.444 17.8693 147.16 17.6954 147.962 17.6954C148.765 17.6954 148.699 17.7171 149.003 17.7606C149.328 17.8041 149.567 17.8693 149.719 17.9128V14.1737C149.567 14.1302 149.372 14.1084 149.133 14.065C148.895 14.0215 148.634 14.0215 148.353 14.0215V14.0432Z" fill="white"/>
<path d="M166.872 18.5872C166.135 17.1306 165.094 16.022 163.75 15.2393C162.405 14.4567 160.844 14.0654 159.044 14.0654C157.244 14.0654 155.704 14.4567 154.36 15.2393C153.015 16.022 151.974 17.1306 151.237 18.5872C150.499 20.0437 150.109 21.7828 150.109 23.7828V23.8263C150.109 25.8263 150.478 27.5654 151.215 29.022C151.952 30.4785 152.993 31.6089 154.338 32.3915C155.682 33.1741 157.265 33.5654 159.065 33.5654C160.865 33.5654 162.448 33.1741 163.771 32.3915C165.116 31.6089 166.135 30.4785 166.894 29.022C167.631 27.5654 168 25.848 168 23.8263V23.7828C168 21.7611 167.631 20.0437 166.872 18.5872ZM163.858 23.8046C163.858 25.1524 163.663 26.3046 163.272 27.2611C162.882 28.2176 162.318 28.935 161.603 29.435C160.887 29.935 160.041 30.1959 159.065 30.1959C158.09 30.1959 157.222 29.935 156.506 29.435C155.791 28.935 155.227 28.1959 154.837 27.2611C154.446 26.3046 154.251 25.1741 154.251 23.8046V23.7611C154.251 22.4133 154.446 21.2611 154.837 20.3263C155.227 19.3915 155.791 18.6524 156.506 18.1524C157.222 17.6524 158.068 17.3915 159.022 17.3915C159.976 17.3915 160.844 17.6306 161.559 18.1306C162.297 18.6306 162.839 19.348 163.251 20.3046C163.641 21.2611 163.836 22.3915 163.836 23.7611V23.8046H163.858Z" fill="white"/>
</g>
<defs>
<linearGradient id="paint0_linear_20_3" x1="0.325184" y1="44.1085" x2="28.1363" y2="0.735696" gradientUnits="userSpaceOnUse">
<stop stop-color="#2993F9"/>
<stop offset="0.5" stop-color="#1CD3F2"/>
<stop offset="1" stop-color="#38EDCD"/>
</linearGradient>
<clipPath id="clip0_20_3">
<rect width="168" height="42" fill="white"/>
</clipPath>
</defs>
</svg>
