<svg width="168" height="42" viewBox="0 0 168 42" fill="none" xmlns="http://www.w3.org/2000/svg">
<path fill-rule="evenodd" clip-rule="evenodd" d="M9.11041 9.53952C9.11041 8.30861 10.1361 7.28284 11.3671 7.28284C12.598 7.28284 13.6237 8.30861 13.6237 9.53952C13.6237 10.7704 12.598 11.7962 11.3671 11.7962C10.1361 11.7962 9.11041 10.7704 9.11041 9.53952ZM30.0358 25.3362C30.0358 31.183 26.4457 36.2092 20.1886 39.0813C16.8036 40.6199 13.5211 41.4405 8.70008 41.8508C7.7769 41.8508 -0.942017 42.056 0.0837392 40.6199C1.9301 39.2864 3.16103 38.5684 3.46875 36.004C3.46875 34.8757 3.46875 29.8495 3.46875 22.0538C3.46875 19.0791 3.46875 16.8224 3.46875 15.0786C3.46875 9.94982 3.46873 9.64209 3.5713 8.92406C3.77645 7.38543 4.08418 6.56483 4.59706 5.43649C5.52024 3.59013 7.36661 1.94891 9.41813 1.12831C11.1619 0.410277 13.4186 0.102576 15.5727 0C18.4448 0 21.4195 0.410302 23.471 1.53863C25.1122 2.35924 26.3431 3.59014 27.2663 5.0262C28.3946 6.87256 28.9075 9.43695 28.7023 12.2065C28.5998 14.7709 27.9843 16.6172 26.856 18.361C26.6508 18.7713 26.4457 19.079 26.4457 19.1816C26.4457 19.1816 26.6508 19.4893 27.0611 19.6945C29.0101 21.1306 29.9332 22.9769 29.9332 25.5413L30.0358 25.3362ZM7.98207 14.0528C7.98207 14.3606 8.28979 14.8735 8.39237 15.1812C8.7001 15.6941 8.80267 15.8992 9.41813 16.5146C10.5465 17.643 11.3671 18.0533 13.2134 18.361C14.2392 18.5662 15.6752 18.5662 17.7268 18.361C19.2654 18.361 19.6757 18.2585 20.2911 17.9507C21.9324 17.4379 23.2658 16.3095 23.8813 14.7709C23.9839 14.4632 24.189 14.1554 24.189 13.8477C24.5993 12.2065 24.5993 9.74468 24.189 8.20605C23.7787 6.56484 22.3427 5.43649 20.7014 5.33391C20.2911 5.33391 19.9834 5.33392 19.5731 5.43649C18.2396 5.74422 17.2139 6.6674 16.701 8.00089C16.701 8.20604 16.5984 8.41119 16.4958 8.61635C16.4958 8.92407 16.4958 9.12922 16.4958 9.53952C16.4958 10.3601 16.701 10.873 17.2139 11.7962C17.3165 12.0013 17.5216 12.2065 17.5216 12.3091C17.5216 12.3091 17.5216 12.4116 17.3165 12.5142C16.8036 12.9245 16.2907 13.6426 15.983 14.3606C15.983 14.4632 15.8804 14.3606 15.7778 14.1554C15.5727 13.54 14.9572 12.8219 14.5469 12.5142C14.5469 12.5142 14.3417 12.4116 14.3417 12.3091C14.3417 12.3091 14.3418 12.1039 14.5469 11.8987C15.0598 10.9756 15.2649 10.3601 15.2649 9.6421C15.2649 8.00089 14.3417 6.56483 12.9057 5.94937C12.7005 5.94937 12.598 5.84679 12.3928 5.74421C12.3928 5.74421 12.2903 5.74421 12.1877 5.74421C11.6748 5.53906 11.0593 5.53906 10.5465 5.74421C10.5465 5.74421 10.5465 5.74421 10.4439 5.74421C9.31555 6.05194 8.2898 6.97514 7.98207 8.20605C7.4692 10.0524 7.4692 12.4116 7.98207 14.258V14.0528ZM23.0607 24.7207C21.522 23.5924 19.2654 23.6949 17.419 23.6949C14.752 23.6949 12.2902 23.695 10.3413 24.5156C8.28979 25.5413 8.18723 28.2083 8.08466 30.3624C8.08466 32.0036 8.08463 34.2602 9.21296 35.286C10.9567 36.7221 13.7263 35.4911 15.6752 34.9783C18.8551 33.9525 21.6246 32.3113 23.1633 29.5418C24.0864 28.1057 24.5993 25.8491 23.1633 24.6181L23.0607 24.7207ZM20.9066 11.6936C22.1375 11.6936 23.1633 10.6678 23.1633 9.43694C23.1633 8.20603 22.1375 7.18029 20.9066 7.18029C19.6757 7.18029 18.6499 8.20603 18.6499 9.43694C18.6499 10.6678 19.6757 11.6936 20.9066 11.6936Z" fill="url(#paint0_linear_19_175)"/>
<path d="M58.5519 20.4129C57.6288 19.9 56.603 19.4897 55.3721 19.3872C56.2953 19.182 57.1159 18.8743 57.8339 18.2588C58.552 17.7459 59.1674 17.0279 59.5777 16.2073C59.988 15.3867 60.1932 14.5661 60.1932 13.6429C60.1932 12.3094 59.8854 11.1811 59.27 10.2579C58.6545 9.33475 57.7313 8.51413 56.603 8.00126C55.4747 7.48838 54.1412 7.18066 52.6026 7.18066H42.2424V32.8246H52.7052C54.5515 32.8246 56.0901 32.5168 57.4236 31.9014C58.7571 31.2859 59.6803 30.4653 60.3983 29.4396C61.1164 28.3112 61.4241 27.0803 61.4241 25.5417C61.4241 24.4134 61.2189 23.3876 60.706 22.4644C60.1932 21.5412 59.4751 20.8232 58.5519 20.3103V20.4129ZM51.4742 10.6682C52.9103 10.6682 54.0386 10.9759 54.7567 11.5914C55.4747 12.2069 55.885 13.13 55.885 14.2584C55.885 15.5919 55.4747 16.515 54.5515 17.2331C53.6283 17.9511 52.2949 18.2588 50.6536 18.2588H46.3455V10.7708H51.4742V10.6682ZM57.1159 25.5417C57.1159 26.8752 56.7056 27.9009 55.7824 28.619C54.8592 29.337 53.5257 29.6447 51.782 29.6447H46.448V21.4387H51.5768C52.8077 21.4387 53.8335 21.5412 54.6541 21.849C55.4747 22.1567 56.0901 22.567 56.5004 23.1824C56.9107 23.7979 57.1159 24.5159 57.1159 25.4391V25.5417Z" fill="#142B3D"/>
<path d="M75.7846 14.6682C74.6563 14.1554 73.3227 13.8477 71.7841 13.8477C70.2455 13.8477 68.912 14.0528 67.7837 14.5657C66.6554 15.0785 65.7322 15.7966 65.1167 16.6172C64.5012 17.4378 64.091 18.4635 63.9884 19.5919V19.797H67.7837V19.5919C67.9889 18.8738 68.3991 18.2584 69.0146 17.8481C69.63 17.4378 70.5532 17.1301 71.5789 17.1301C72.6047 17.1301 73.6305 17.4378 74.246 17.9507C74.8614 18.5661 75.1691 19.2842 75.1691 20.3099V21.6434L70.1429 21.9511C67.8863 22.0537 66.1424 22.6692 64.9115 23.5923C63.6806 24.5155 63.0652 25.849 63.0652 27.4902C63.0652 28.6185 63.3729 29.6443 63.8858 30.4649C64.3987 31.2855 65.1167 32.0035 66.0399 32.4138C66.9631 32.9267 68.0914 33.1319 69.3223 33.1319C70.5532 33.1319 70.9635 33.0293 71.6816 32.7216C72.3996 32.4138 73.015 32.1061 73.6305 31.5932C74.2459 31.0803 74.6562 30.5675 75.0665 29.8494V32.8241H79.1696V19.8996C79.1696 18.6687 78.8618 17.5404 78.2464 16.6172C77.6309 15.694 76.7078 14.976 75.5794 14.4631L75.7846 14.6682ZM74.6562 28.1057C74.2459 28.7211 73.7331 29.234 73.015 29.5417C72.297 29.952 71.579 30.0546 70.6558 30.0546C69.7326 30.0546 68.8094 29.8494 68.194 29.3365C67.5785 28.8237 67.2708 28.2082 67.2708 27.4902C67.2708 26.6696 67.5785 26.0542 68.194 25.6439C68.8094 25.131 69.63 24.9258 70.7584 24.8232L75.1691 24.5155V25.9516C75.1691 26.7722 74.964 27.3876 74.5537 28.1057H74.6562Z" fill="#142B3D"/>
<path d="M86.8628 7.28223H82.7598V32.9261H86.8628V7.28223Z" fill="#142B3D"/>
<path d="M102.146 14.6682C101.018 14.1554 99.6846 13.8477 98.1459 13.8477C96.6073 13.8477 95.2738 14.0528 94.1455 14.5657C93.0171 15.0785 92.094 15.7966 91.4785 16.6172C90.8631 17.4378 90.4528 18.4635 90.3502 19.5919V19.797H94.1455V19.5919C94.3506 18.8738 94.7609 18.2584 95.3764 17.8481C95.9918 17.4378 96.915 17.1301 97.9408 17.1301C98.9665 17.1301 99.9923 17.4378 100.608 17.9507C101.223 18.5661 101.531 19.2842 101.531 20.3099V21.6434L96.5047 21.9511C94.2481 22.0537 92.5043 22.6692 91.2734 23.5923C90.0424 24.5155 89.427 25.849 89.427 27.4902C89.427 28.6185 89.7347 29.6443 90.2476 30.4649C90.7605 31.2855 91.4785 32.0035 92.4017 32.4138C93.3249 32.9267 94.4532 33.1319 95.6841 33.1319C96.915 33.1319 97.3253 33.0293 98.0434 32.7216C98.7614 32.4138 99.3768 32.1061 99.9923 31.5932C100.608 31.0803 101.018 30.5675 101.428 29.8494V32.8241H105.531V19.8996C105.531 18.6687 105.224 17.5404 104.608 16.6172C103.993 15.694 103.07 14.976 101.941 14.4631L102.146 14.6682ZM101.018 28.1057C100.608 28.7211 100.095 29.234 99.3768 29.5417C98.6588 29.952 97.9408 30.0546 97.0176 30.0546C96.0944 30.0546 95.1712 29.8494 94.5558 29.3365C93.9403 28.8237 93.6326 28.2082 93.6326 27.4902C93.6326 26.6696 93.9403 26.0542 94.5558 25.6439C95.1712 25.131 95.9918 24.9258 97.1202 24.8232L101.531 24.5155V25.9516C101.531 26.7722 101.326 27.3876 100.915 28.1057H101.018Z" fill="#142B3D"/>
<path d="M118.866 13.8477C117.43 13.8477 116.302 14.1554 115.276 14.7708C114.353 15.3863 113.635 16.1043 113.122 17.1301V14.258H109.019V33.0293H113.122V22.1563C113.122 21.2331 113.327 20.4125 113.635 19.6944C113.943 18.9764 114.456 18.4635 115.174 18.0532C115.789 17.6429 116.61 17.4378 117.43 17.4378C118.764 17.4378 119.687 17.8481 120.302 18.5661C120.918 19.2841 121.226 20.4125 121.226 21.746V33.0293H125.329V20.9254C125.329 18.7713 124.816 17.0275 123.687 15.7966C122.559 14.5657 121.02 13.9502 118.866 13.9502V13.8477Z" fill="#142B3D"/>
<path d="M133.843 9.4375H129.637V14.2586H126.97V17.4384H129.637V28.0037C129.637 29.8501 130.15 31.2861 131.073 32.1067C131.996 32.9273 133.432 33.3376 135.279 33.3376C137.125 33.3376 136.099 33.3376 136.407 33.3376C136.715 33.3376 137.022 33.3376 137.33 33.2351V30.1578C137.228 30.1578 137.022 30.1578 136.817 30.1578C136.612 30.1578 136.407 30.1578 136.202 30.1578C135.381 30.1578 134.766 29.9526 134.355 29.6449C133.945 29.3372 133.74 28.6192 133.74 27.696V17.4384H137.228V14.2586H133.74V9.4375H133.843Z" fill="#142B3D"/>
<path d="M148.511 13.8477C147.485 13.8477 146.562 14.1554 145.741 14.7708C145.023 15.3863 144.51 16.3095 144.202 17.4378V14.258H140.099V33.0293H144.202V21.9511C144.202 21.0279 144.408 20.2073 144.715 19.5919C145.023 18.9764 145.536 18.4635 146.151 18.0532C146.767 17.7455 147.485 17.5404 148.305 17.5404C149.126 17.5404 149.023 17.5404 149.331 17.5404C149.639 17.5404 149.844 17.5404 150.049 17.7455V14.0528C149.947 14.0528 149.741 14.0528 149.434 13.9502C149.229 13.9502 148.921 13.9502 148.613 13.9502L148.511 13.8477Z" fill="#142B3D"/>
<path d="M167.077 18.361C166.359 16.9249 165.333 15.7966 163.897 14.976C162.563 14.1554 161.025 13.8477 159.178 13.8477C157.332 13.8477 155.794 14.2579 154.46 14.976C153.127 15.7966 152.101 16.8223 151.28 18.361C150.562 19.797 150.152 21.5408 150.152 23.5923C150.152 25.6439 150.562 27.3876 151.28 28.8237C151.998 30.2597 153.024 31.3881 154.357 32.2087C155.691 33.0293 157.23 33.4396 159.076 33.4396C160.922 33.4396 162.461 33.0293 163.794 32.2087C165.128 31.3881 166.154 30.2597 166.872 28.8237C167.59 27.3876 168 25.6439 168 23.5923C168 21.5408 167.59 19.797 166.872 18.361H167.077ZM164.102 23.5923C164.102 24.9258 163.897 26.0541 163.487 27.0799C163.076 28.0031 162.563 28.7211 161.845 29.234C161.127 29.7469 160.307 29.952 159.281 29.952C158.255 29.952 157.435 29.7469 156.717 29.234C155.999 28.7211 155.486 28.0031 155.075 27.0799C154.665 26.1567 154.46 25.0284 154.46 23.5923C154.46 22.1563 154.665 21.0279 155.075 20.1047C155.486 19.1816 155.999 18.4636 156.717 17.9507C157.435 17.4378 158.255 17.2326 159.281 17.2326C160.307 17.2326 161.127 17.4378 161.845 17.9507C162.563 18.4636 163.179 19.1816 163.487 20.1047C163.897 21.0279 164.102 22.1563 164.102 23.5923Z" fill="#142B3D"/>
<defs>
<linearGradient id="paint0_linear_19_175" x1="0.28889" y1="43.9023" x2="28.0869" y2="0.512858" gradientUnits="userSpaceOnUse">
<stop stop-color="#2993F9"/>
<stop offset="0.5" stop-color="#1CD3F2"/>
<stop offset="1" stop-color="#38EDCD"/>
</linearGradient>
</defs>
</svg>
