<svg width="31" height="42" viewBox="0 0 31 42" fill="none" xmlns="http://www.w3.org/2000/svg">
<path fill-rule="evenodd" clip-rule="evenodd" d="M9.17088 9.65586C9.17088 8.43606 10.1671 7.4427 11.3904 7.4427C12.6137 7.4427 13.6099 8.43606 13.6099 9.65586C13.6099 10.8756 12.6137 11.869 11.3904 11.869C10.1671 11.869 9.17088 10.8756 9.17088 9.65586ZM30.0399 25.4109C30.0546 31.2542 26.4653 36.2502 20.2024 39.128C16.7962 40.6911 13.5513 41.4581 8.68743 41.8525C7.80842 41.8525 -0.908378 42.0643 0.080503 40.5962C1.97036 39.2449 3.13505 38.5145 3.43537 35.9507C3.43537 34.877 3.5013 29.8007 3.5013 22.0145C3.5013 19.0271 3.5013 16.7701 3.5013 15.0609H3.47932C3.48665 9.96263 3.51595 9.62664 3.6185 8.94005C3.83825 7.42079 4.0873 6.61003 4.68063 5.42676C5.61091 3.57882 7.47147 1.91347 9.50051 1.11002C11.2512 0.416124 13.456 0.0436133 15.7048 -0.000211484C18.5762 -0.0586446 21.5063 0.430733 23.5866 1.48983C25.2127 2.3152 26.5093 3.50577 27.3736 4.97391C28.4797 6.84376 28.9851 9.34908 28.8166 12.1247C28.6628 14.6738 28.0988 16.529 26.9634 18.2236C26.7217 18.5815 26.5239 18.9321 26.5239 18.9978C26.5239 19.0709 26.751 19.2827 27.1099 19.553C29.095 21.0138 30.0253 22.869 30.0326 25.4109H30.0399ZM8.01352 14.2209C8.0941 14.4985 8.2992 15.0098 8.46768 15.3604C8.74603 15.9228 8.87055 16.0835 9.49318 16.7043C10.5919 17.7927 11.4783 18.2163 13.3242 18.5304C14.335 18.7057 15.7414 18.7203 17.8218 18.5961C19.3161 18.5012 19.7482 18.4427 20.4002 18.2382C22.0776 17.6977 23.3448 16.5729 24.0261 15.0609H24.0041C24.1433 14.7614 24.2605 14.4474 24.3484 14.1187C24.7732 12.5045 24.8025 10.0138 24.4143 8.47259C23.9968 6.82185 22.5977 5.69701 20.9569 5.63128C20.5833 5.61667 20.2024 5.66049 19.8142 5.76275C18.4517 6.12065 17.4335 7.02637 16.9501 8.29729C16.8695 8.51641 16.8109 8.69901 16.7743 8.88162H16.7523C16.6937 9.15187 16.6717 9.41482 16.6717 9.77272C16.6717 10.6127 16.8475 11.1532 17.3896 12.0297C17.5288 12.2561 17.646 12.4753 17.646 12.5118C17.646 12.5483 17.5581 12.6432 17.4555 12.7236C16.9354 13.118 16.4153 13.863 16.1736 14.5569C16.1297 14.6957 16.0418 14.6154 15.9246 14.3232C15.6755 13.7243 15.1481 13.0158 14.6866 12.6798C14.5987 12.614 14.5182 12.541 14.5108 12.5118C14.4962 12.4826 14.5987 12.2853 14.7379 12.0662C15.2946 11.1824 15.4997 10.5689 15.4997 9.76542C15.4997 8.1512 14.5694 6.7269 13.1191 6.033C13.0971 6.0257 13.0825 6.01109 13.0605 6.00379C12.9067 5.93075 12.7455 5.87231 12.577 5.81388C12.5111 5.79197 12.4452 5.77006 12.3792 5.74814C11.8225 5.59476 11.2658 5.58015 10.7311 5.6751C10.6945 5.6751 10.6652 5.68971 10.6286 5.69701C10.5773 5.71162 10.526 5.71893 10.4747 5.73354C9.32471 6.05492 8.36513 6.96063 8.0062 8.17312C7.4495 10.043 7.49345 12.3292 8.02085 14.199L8.01352 14.2209ZM23.1031 24.8119L23.0592 24.7754C21.5356 23.6725 19.2648 23.7894 17.4116 23.7821C14.7526 23.8624 12.2547 23.7309 10.2843 24.6512C8.2113 25.725 8.1234 28.3617 8.0648 30.458C8.07212 32.1015 8.13073 34.3073 9.22948 35.381C10.9582 36.7834 13.7197 35.6221 15.6682 35.1035C18.8985 34.0298 21.5795 32.4155 23.1837 29.713C24.0773 28.2376 24.656 26.0098 23.1031 24.8046V24.8119ZM20.9129 11.869C22.1362 11.869 23.1324 10.8756 23.1324 9.65586C23.1324 8.43606 22.1362 7.4427 20.9129 7.4427C19.6896 7.4427 18.6934 8.43606 18.6934 9.65586C18.6934 10.8756 19.6896 11.869 20.9129 11.869Z" fill="url(#paint0_linear_31_45)"/>
<defs>
<linearGradient id="paint0_linear_31_45" x1="0.33688" y1="43.9488" x2="27.9717" y2="0.592778" gradientUnits="userSpaceOnUse">
<stop stop-color="#2993F9"/>
<stop offset="0.5" stop-color="#1CD3F2"/>
<stop offset="1" stop-color="#38EDCD"/>
</linearGradient>
</defs>
</svg>
